{"title":"GRAVITY 2013 NEWSOURCE DVDSCR X264 AC3 MURDER","uid":9321276,"size":541930023,"categoryP":"video","categoryS":"movies","magnet":"?xt=urn:btih:ac78108379af89a64ebf3c44d5f5b3b12cbd8b83&amp;dn=GRAVITY+2013+NEWSOURCE+DVDSCR+X264+AC3+MURDER&amp;tr=udp%3A%2F%2Ftracker.openbittorrent.com%3A80&amp;tr=udp%3A%2F%2Fopen.demonii.com%3A1337&amp;tr=udp%3A%2F%2Ftracker.coppersurfer.tk%3A6969&amp;tr=udp%3A%2F%2Fexodus.desync.com%3A6969","seeders":0,"leechers":0,"uploader":"darkj6","files":-1,"time":1386557151,"description":"Format                                   : Matroska\nFormat version                           : Version 2\nFile size                                : 514 MiB\nDuration                                 : 1h 30mn\nOverall bit rate                         : 790 Kbps\nEncoded date                             : UTC 2013-12-08 23:44:10\nWriting application                      : mkvmerge v6.5.0 ('Isn't she lovely'wink.gif built on Oct 20 2013 12:50:05\nWriting library                          : libebml v1.3.0 + libmatroska v1.4.1\n\nVideo\nID                                       : 1\nFormat                                   : AVC\nFormat/Info                              : Advanced Video Codec\nFormat profile                           : &lt;a class=&quot;__cf_email__&quot; href=&quot;/cdn-cgi/l/email-protection&quot; data-cfemail=&quot;f4bc9d939cb4b8c6dac5&quot;&gt;[email&amp;#160;protected]&lt;/a&gt;&lt;script data-cfhash='f9e31' type=&quot;text/javascript&quot;&gt;\n/* &lt;![CDATA[ */!function(){try{var t=&quot;currentScript&quot;in document?document.currentScript:function(){for(var t=document.getElementsByTagName(&quot;script&quot;),e=t.length;e--;)if(t[e].getAttribute(&quot;data-cfhash&quot;))return t[e]}();if(t&amp;&amp;t.previousSibling){var e,r,n,i,c=t.previousSibling,a=c.getAttribute(&quot;data-cfemail&quot;);if(a){for(e=&quot;&quot;,r=parseInt(a.substr(0,2),16),n=2;a.length-n;n+=2)i=parseInt(a.substr(n,2),16)^r,e+=String.fromCharCode(i);e=document.createTextNode(e),c.parentNode.replaceChild(e,c)}t.parentNode.removeChild(t);}}catch(u){}}()/* ]]&gt; */&lt;/script&gt;\nFormat settings, CABAC                   : Yes\nFormat settings, ReFrames                : 4 frames\nCodec ID                                 : V_MPEG4/ISO/AVC\nDuration                                 : 1h 30mn\nBit rate                                 : 454 Kbps\nWidth                                    : 640 pixels\nHeight                                   : 272 pixels\nDisplay aspect ratio                     : 2.35:1\nFrame rate mode                          : Constant\nFrame rate                               : 23.976 fps\nColor space                              : YUV\nChroma subsampling                       : 4:2:0\nBit depth                                : 8 bits\nScan type                                : Progressive\nBits/(Pixel*Frame)                       : 0.109\nStream size                              : 296 MiB (58%)\nWriting library                          : x264 core\nLanguage                                 : English\nDefault                                  : Yes\nForced                                   : No\nColor primaries                          : BT.601 NTSC\nTransfer characteristics                 : BT.709\nMatrix coefficients                      : BT.601\n\nAudio\nID                                       : 2\nFormat                                   : AC-3\nFormat/Info                              : Audio Coding 3\nMode extension                           : CM (complete main)\nFormat settings, Endianness              : Big\nCodec ID                                 : A_AC3\nDuration                                 : 1h 30mn\nBit rate mode                            : Constant\nBit rate                                 : 320 Kbps\nChannel count                            : 2 channels\nChannel positions                        : Front: L R\nSampling rate                            : 48.0 KHz\nBit depth                                : 16 bits\nCompression mode                         : Lossy\nStream size                              : 208 MiB (40%)\nLanguage                                 : English\nDefault                                  : Yes\nForced                                   : No\n\n\nDr. Ryan Stone (Sandra Bullock) is a brilliant medical engineer on her first shuttle mission, with veteran astronaut Matt Kowalsky (George Clooney) in command of his last flight before retiring. But on a seemingly routine spacewalk, disaster strikes. The shuttle is destroyed, leaving Stone and Kowalsky completely alone - tethered to nothing but each other and spiraling out into the blackness.\n\n &lt;a href=&quot;\nhttp://i.imgur.com/KuS09Fb.png&quot; rel=&quot;nofollow&quot; target=&quot;_NEW&quot;&gt;\nhttp://i.imgur.com/KuS09Fb.png&lt;/a&gt;\n\n &lt;a href=&quot;\nhttp://i.imgur.com/SzFNDJE.png&quot; rel=&quot;nofollow&quot; target=&quot;_NEW&quot;&gt;\nhttp://i.imgur.com/SzFNDJE.png&lt;/a&gt;\n\n &lt;a href=&quot;\nhttp://i.imgur.com/nt2ii6b.png&quot; rel=&quot;nofollow&quot; target=&quot;_NEW&quot;&gt;\nhttp://i.imgur.com/nt2ii6b.png&lt;/a&gt;\n\n &lt;a href=&quot;\nhttp://i.imgur.com/9LZ3g53.png&quot; rel=&quot;nofollow&quot; target=&quot;_NEW&quot;&gt;\nhttp://i.imgur.com/9LZ3g53.png&lt;/a&gt;\n\n\n &lt;a href=&quot;\nhttp://i.imgur.com/aMuZCIr.png&quot; rel=&quot;nofollow&quot; target=&quot;_NEW&quot;&gt;\nhttp://i.imgur.com/aMuZCIr.png&lt;/a&gt;\n\n &lt;a href=&quot;\nhttp://i.imgur.com/mC5Y17N.png&quot; rel=&quot;nofollow&quot; target=&quot;_NEW&quot;&gt;\nhttp://i.imgur.com/mC5Y17N.png&lt;/a&gt;\n\n &lt;a href=&quot;\nhttp://i.imgur.com/wrpfU7C.png&quot; rel=&quot;nofollow&quot; target=&quot;_NEW&quot;&gt;\nhttp://i.imgur.com/wrpfU7C.png&lt;/a&gt;\n\n &lt;a href=&quot;\nhttp://i.imgur.com/jnVEVlM.png&quot; rel=&quot;nofollow&quot; target=&quot;_NEW&quot;&gt;\nhttp://i.imgur.com/jnVEVlM.png&lt;/a&gt;","torrent":{"xt":"urn:btih:ac78108379af89a64ebf3c44d5f5b3b12cbd8b83","amp;dn":"GRAVITY+2013+NEWSOURCE+DVDSCR+X264+AC3+MURDER","amp;tr":["udp%3A%2F%2Ftracker.openbittorrent.com%3A80","udp%3A%2F%2Fopen.demonii.com%3A1337","udp%3A%2F%2Ftracker.coppersurfer.tk%3A6969","udp%3A%2F%2Fexodus.desync.com%3A6969"],"infoHash":"ac78108379af89a64ebf3c44d5f5b3b12cbd8b83","infoHashBuffer":{"type":"Buffer","data":[172,120,16,131,121,175,137,166,78,191,60,68,213,245,179,177,44,189,139,131]},"announce":[],"urlList":[]}}